<?xml version="1.0" encoding="utf-8"?>
<!-- Generator: Adobe Illustrator 26.2.1, SVG Export Plug-In . SVG Version: 6.00 Build 0)  -->
<svg version="1.1" id="Layer_1" xmlns="http://www.w3.org/2000/svg" xmlns:xlink="http://www.w3.org/1999/xlink" x="0px" y="0px"
	 viewBox="0 0 555.1 183.3" style="enable-background:new 0 0 555.1 183.3;" xml:space="preserve">
<style type="text/css">
	.st0{fill:#808080;}
	.st1{font-family:'ArialMT';}
	.st2{font-size:5.544px;}
	.st3{fill:none;stroke:#C90D0C;stroke-width:0.432;stroke-linecap:round;stroke-miterlimit:11.3386;}
	.st4{fill:none;stroke:#0DAB76;stroke-width:0.432;stroke-linecap:round;stroke-miterlimit:11.3386;}
	.st5{fill:#0DAB76;}
	.st6{fill:none;stroke:#C90D0C;stroke-width:0.72;stroke-linecap:round;stroke-miterlimit:11.3386;}
	.st7{font-size:4.752px;}
	.st8{fill:#C90D0C;}
	.st9{font-size:3.96px;}
	.st10{fill:none;stroke:#C90D0C;stroke-width:1.728;stroke-linecap:round;stroke-miterlimit:11.3386;}
	.st11{enable-background:new    ;}
	.st12{font-size:5.6168px;}
	.st13{font-size:5.6166px;}
</style>
<desc>generated by eagle2svg 1.2, developed by http://www.nicai-systems.de</desc>
<text transform="matrix(1 0 0 1 276.8065 31.0062)" class="st0 st1 st2">PCB2</text>
<text transform="matrix(1 0 0 1 276.8065 160.6058)" class="st0 st1 st2">LEDRING</text>
<line class="st3" x1="276.8" y1="35.3" x2="284.9" y2="35.3"/>
<line class="st3" x1="289.1" y1="35.3" x2="297.2" y2="35.3"/>
<line class="st3" x1="301.4" y1="35.3" x2="309.5" y2="35.3"/>
<line class="st3" x1="313.7" y1="35.3" x2="321.8" y2="35.3"/>
<line class="st3" x1="326" y1="35.3" x2="334.1" y2="35.3"/>
<line class="st3" x1="338.3" y1="35.3" x2="346.4" y2="35.3"/>
<line class="st3" x1="350.6" y1="35.3" x2="358.7" y2="35.3"/>
<line class="st3" x1="362.9" y1="35.3" x2="371" y2="35.3"/>
<line class="st3" x1="375.2" y1="35.3" x2="383.3" y2="35.3"/>
<line class="st3" x1="387.5" y1="35.3" x2="395.6" y2="35.3"/>
<line class="st3" x1="399.8" y1="35.3" x2="407.9" y2="35.3"/>
<line class="st3" x1="412.1" y1="35.3" x2="420.2" y2="35.3"/>
<line class="st3" x1="424.4" y1="35.3" x2="432.5" y2="35.3"/>
<line class="st3" x1="436.7" y1="35.3" x2="444.8" y2="35.3"/>
<line class="st3" x1="449" y1="35.3" x2="457.1" y2="35.3"/>
<line class="st3" x1="461.3" y1="35.3" x2="469.4" y2="35.3"/>
<line class="st3" x1="473.6" y1="35.3" x2="481.7" y2="35.3"/>
<line class="st3" x1="485.9" y1="35.3" x2="494" y2="35.3"/>
<line class="st3" x1="498.2" y1="35.3" x2="506.3" y2="35.3"/>
<line class="st3" x1="510.6" y1="35.3" x2="518.6" y2="35.3"/>
<line class="st3" x1="522.9" y1="35.3" x2="530.9" y2="35.3"/>
<line class="st3" x1="535.2" y1="35.3" x2="543.2" y2="35.3"/>
<line class="st3" x1="543.2" y1="35.3" x2="543.2" y2="44.3"/>
<line class="st3" x1="543.2" y1="48.6" x2="543.2" y2="57.6"/>
<line class="st3" x1="543.2" y1="61.9" x2="543.2" y2="70.9"/>
<line class="st3" x1="543.2" y1="75.1" x2="543.2" y2="84.2"/>
<line class="st3" x1="543.2" y1="88.4" x2="543.2" y2="97.4"/>
<line class="st3" x1="543.2" y1="101.7" x2="543.2" y2="110.7"/>
<line class="st3" x1="543.2" y1="115" x2="543.2" y2="124"/>
<line class="st3" x1="543.2" y1="128.2" x2="543.2" y2="137.3"/>
<line class="st3" x1="543.2" y1="141.5" x2="543.2" y2="150.5"/>
<line class="st3" x1="543.2" y1="150.5" x2="535.2" y2="150.5"/>
<line class="st3" x1="530.9" y1="150.5" x2="522.9" y2="150.5"/>
<line class="st3" x1="518.6" y1="150.5" x2="510.6" y2="150.5"/>
<line class="st3" x1="506.3" y1="150.5" x2="498.2" y2="150.5"/>
<line class="st3" x1="494" y1="150.5" x2="485.9" y2="150.5"/>
<line class="st3" x1="481.7" y1="150.5" x2="473.6" y2="150.5"/>
<line class="st3" x1="469.4" y1="150.5" x2="461.3" y2="150.5"/>
<line class="st3" x1="457.1" y1="150.5" x2="449" y2="150.5"/>
<line class="st3" x1="444.8" y1="150.5" x2="436.7" y2="150.5"/>
<line class="st3" x1="432.5" y1="150.5" x2="424.4" y2="150.5"/>
<line class="st3" x1="420.2" y1="150.5" x2="412.1" y2="150.5"/>
<line class="st3" x1="407.9" y1="150.5" x2="399.8" y2="150.5"/>
<line class="st3" x1="395.6" y1="150.5" x2="387.5" y2="150.5"/>
<line class="st3" x1="383.3" y1="150.5" x2="375.2" y2="150.5"/>
<line class="st3" x1="371" y1="150.5" x2="362.9" y2="150.5"/>
<line class="st3" x1="358.7" y1="150.5" x2="350.6" y2="150.5"/>
<line class="st3" x1="346.4" y1="150.5" x2="338.3" y2="150.5"/>
<line class="st3" x1="334.1" y1="150.5" x2="326" y2="150.5"/>
<line class="st3" x1="321.8" y1="150.5" x2="313.7" y2="150.5"/>
<line class="st3" x1="309.5" y1="150.5" x2="301.4" y2="150.5"/>
<line class="st3" x1="297.2" y1="150.5" x2="289.1" y2="150.5"/>
<line class="st3" x1="284.9" y1="150.5" x2="276.8" y2="150.5"/>
<line class="st3" x1="276.8" y1="150.5" x2="276.8" y2="141.5"/>
<line class="st3" x1="276.8" y1="137.3" x2="276.8" y2="128.2"/>
<line class="st3" x1="276.8" y1="124" x2="276.8" y2="115"/>
<line class="st3" x1="276.8" y1="110.7" x2="276.8" y2="101.7"/>
<line class="st3" x1="276.8" y1="97.4" x2="276.8" y2="88.4"/>
<line class="st3" x1="276.8" y1="84.2" x2="276.8" y2="75.1"/>
<line class="st3" x1="276.8" y1="70.9" x2="276.8" y2="61.9"/>
<line class="st3" x1="276.8" y1="57.6" x2="276.8" y2="48.6"/>
<line class="st3" x1="276.8" y1="44.3" x2="276.8" y2="35.3"/>
<line class="st4" x1="334.4" y1="20.9" x2="334.4" y2="49.7"/>
<line class="st4" x1="334.4" y1="49.7" x2="334.4" y2="56.9"/>
<line class="st4" x1="514.4" y1="49.7" x2="514.4" y2="56.9"/>
<line class="st4" x1="514.4" y1="49.7" x2="334.4" y2="49.7"/>
<circle class="st5" cx="334.4" cy="49.7" r="1.4"/>
<line class="st4" x1="10.4" y1="114.5" x2="10.4" y2="136.1"/>
<line class="st4" x1="10.4" y1="136.1" x2="60.8" y2="136.1"/>
<line class="st4" x1="204.8" y1="28.1" x2="219.2" y2="28.1"/>
<line class="st4" x1="219.2" y1="28.1" x2="219.2" y2="35.3"/>
<line class="st4" x1="219.2" y1="35.3" x2="219.2" y2="42.5"/>
<line class="st4" x1="204.8" y1="35.3" x2="219.2" y2="35.3"/>
<circle class="st5" cx="219.2" cy="35.3" r="1.4"/>
<line class="st4" x1="320" y1="128.9" x2="320" y2="136.1"/>
<line class="st4" x1="320" y1="136.1" x2="320" y2="164.9"/>
<line class="st4" x1="500" y1="128.9" x2="500" y2="136.1"/>
<line class="st4" x1="500" y1="136.1" x2="320" y2="136.1"/>
<circle class="st5" cx="320" cy="136.1" r="1.4"/>
<line class="st4" x1="10.4" y1="164.9" x2="10.4" y2="143.3"/>
<line class="st4" x1="10.4" y1="143.3" x2="60.8" y2="143.3"/>
<g>
	<line class="st4" x1="46.4" y1="92.9" x2="17.6" y2="92.9"/>
	<text transform="matrix(1 0 0 1 17.6063 92.9261)" class="st0 st1 st2">GPIO18</text>
	<line class="st4" x1="233.6" y1="107.3" x2="190.4" y2="107.3"/>
	<text transform="matrix(1 0 0 1 190.4061 107.3245)" class="st0 st1 st2">GPIO18</text>
</g>
<g>
	<line class="st4" x1="262.4" y1="107.3" x2="284" y2="107.3"/>
</g>
<g>
	<line class="st4" x1="154.4" y1="28.1" x2="161.6" y2="28.1"/>
	<line class="st4" x1="161.6" y1="28.1" x2="168.8" y2="28.1"/>
	<line class="st4" x1="161.6" y1="28.1" x2="161.6" y2="35.3"/>
	<line class="st4" x1="161.6" y1="35.3" x2="168.8" y2="35.3"/>
	<circle class="st5" cx="161.6" cy="28.1" r="1.4"/>
</g>
<g>
	<line class="st4" x1="392" y1="128.9" x2="392" y2="136.1"/>
</g>
<g>
	<line class="st4" x1="435.2" y1="107.3" x2="442.4" y2="107.3"/>
</g>
<g>
	<line class="st4" x1="449.6" y1="107.3" x2="456.8" y2="107.3"/>
</g>
<g>
	<line class="st4" x1="406.4" y1="56.9" x2="406.4" y2="49.7"/>
</g>
<g>
	<line class="st3" x1="219.2" y1="42.5" x2="219.2" y2="49.7"/>
	<line class="st6" x1="224.6" y1="49.7" x2="213.8" y2="49.7"/>
	<text transform="matrix(1 0 0 1 214.0867 56.9261)" class="st0 st1 st2">GND</text>
</g>
<line class="st3" x1="10.4" y1="164.9" x2="10.4" y2="172.1"/>
<line class="st6" x1="5" y1="172.1" x2="15.8" y2="172.1"/>
<text transform="matrix(1 0 0 1 10.4061 179.3245)" class="st0 st1 st2">GND</text>
<g>
	<line class="st3" x1="320" y1="164.9" x2="320" y2="172.1"/>
	<line class="st6" x1="314.6" y1="172.1" x2="325.4" y2="172.1"/>
	<text transform="matrix(1 0 0 1 320.0067 179.3245)" class="st0 st1 st2">GND</text>
</g>
<g>
	<line class="st3" x1="284" y1="107.3" x2="298.4" y2="107.3"/>
	<text transform="matrix(1 0 0 1 305.0301 109.4847)" class="st0 st1 st7">DI</text>
	<line class="st3" x1="356" y1="107.3" x2="341.6" y2="107.3"/>
	<text transform="matrix(1 0 0 1 327.8543 109.4847)" class="st0 st1 st7">DO</text>
	<line class="st3" x1="320" y1="128.9" x2="320" y2="114.5"/>
	<text transform="matrix(6.123234e-17 -1 1 6.123234e-17 322.1658 107.9007)" class="st0 st1 st7">GND</text>
	<line class="st3" x1="334.4" y1="56.9" x2="334.4" y2="71.3"/>
	<text transform="matrix(6.123234e-17 -1 1 6.123234e-17 336.5652 87.9827)" class="st0 st1 st7">VDD</text>
	<line class="st6" x1="298.4" y1="71.3" x2="298.4" y2="107.3"/>
	<line class="st6" x1="298.4" y1="107.3" x2="298.4" y2="114.5"/>
	<line class="st6" x1="298.4" y1="114.5" x2="320" y2="114.5"/>
	<line class="st6" x1="320" y1="114.5" x2="341.6" y2="114.5"/>
	<line class="st6" x1="341.6" y1="114.5" x2="341.6" y2="107.3"/>
	<line class="st6" x1="341.6" y1="107.3" x2="341.6" y2="71.3"/>
	<line class="st6" x1="341.6" y1="71.3" x2="334.4" y2="71.3"/>
	<line class="st6" x1="334.4" y1="71.3" x2="298.4" y2="71.3"/>
	<line class="st6" x1="302" y1="85.7" x2="305.6" y2="85.7"/>
	<line class="st6" x1="305.6" y1="92.9" x2="302" y2="85.7"/>
	<line class="st6" x1="327.2" y1="92.9" x2="330.8" y2="85.7"/>
	<line class="st6" x1="330.8" y1="85.7" x2="327.2" y2="85.7"/>
	<line class="st6" x1="302" y1="92.9" x2="305.6" y2="92.9"/>
	<line class="st6" x1="327.2" y1="92.9" x2="330.8" y2="92.9"/>
	<line class="st6" x1="316.4" y1="92.9" x2="316.4" y2="96.5"/>
	<line class="st6" x1="316.4" y1="78.5" x2="305.6" y2="78.5"/>
	<line class="st6" x1="305.6" y1="78.5" x2="305.6" y2="85.7"/>
	<line class="st6" x1="316.4" y1="85.7" x2="316.4" y2="78.5"/>
	<line class="st6" x1="327.2" y1="85.7" x2="327.2" y2="78.5"/>
	<line class="st6" x1="327.2" y1="78.5" x2="316.4" y2="78.5"/>
	<line class="st6" x1="305.6" y1="85.7" x2="309.2" y2="85.7"/>
	<line class="st6" x1="305.6" y1="92.9" x2="309.2" y2="85.7"/>
	<line class="st6" x1="323.6" y1="85.7" x2="327.2" y2="92.9"/>
	<line class="st6" x1="323.6" y1="85.7" x2="327.2" y2="85.7"/>
	<line class="st6" x1="305.6" y1="92.9" x2="305.6" y2="96.5"/>
	<line class="st6" x1="327.2" y1="96.5" x2="316.4" y2="96.5"/>
	<line class="st6" x1="316.4" y1="96.5" x2="305.6" y2="96.5"/>
	<line class="st6" x1="320" y1="111.6" x2="320" y2="114.5"/>
	<line class="st6" x1="309.2" y1="92.9" x2="305.6" y2="92.9"/>
	<line class="st6" x1="312.8" y1="92.9" x2="316.4" y2="92.9"/>
	<line class="st6" x1="316.4" y1="92.9" x2="320" y2="92.9"/>
	<line class="st6" x1="316.4" y1="92.9" x2="312.8" y2="85.7"/>
	<line class="st6" x1="312.8" y1="85.7" x2="320" y2="85.7"/>
	<line class="st6" x1="320" y1="85.7" x2="316.4" y2="92.9"/>
	<line class="st6" x1="327.2" y1="92.9" x2="323.6" y2="92.9"/>
	<line class="st6" x1="327.2" y1="92.9" x2="327.2" y2="96.5"/>
	<line class="st6" x1="334.4" y1="71.3" x2="334.4" y2="78.5"/>
	<line class="st6" x1="327.2" y1="78.5" x2="334.4" y2="78.5"/>
	<text transform="matrix(1 0 0 1 308.4861 76.3655)" class="st8 st1 st9">WS2812B</text>
</g>
<g>
	<line class="st3" x1="356" y1="107.3" x2="370.4" y2="107.3"/>
	<text transform="matrix(1 0 0 1 377.0301 109.4847)" class="st0 st1 st7">DI</text>
	<line class="st3" x1="428" y1="107.3" x2="413.6" y2="107.3"/>
	<text transform="matrix(1 0 0 1 399.8543 109.4847)" class="st0 st1 st7">DO</text>
	<line class="st3" x1="392" y1="128.9" x2="392" y2="114.5"/>
	<text transform="matrix(6.123234e-17 -1 1 6.123234e-17 394.1658 107.9007)" class="st0 st1 st7">GND</text>
	<line class="st3" x1="406.4" y1="56.9" x2="406.4" y2="71.3"/>
	<text transform="matrix(6.123234e-17 -1 1 6.123234e-17 408.5652 87.9827)" class="st0 st1 st7">VDD</text>
	<line class="st6" x1="370.4" y1="71.3" x2="370.4" y2="107.3"/>
	<line class="st6" x1="370.4" y1="107.3" x2="370.4" y2="114.5"/>
	<line class="st6" x1="370.4" y1="114.5" x2="392" y2="114.5"/>
	<line class="st6" x1="392" y1="114.5" x2="413.6" y2="114.5"/>
	<line class="st6" x1="413.6" y1="114.5" x2="413.6" y2="107.3"/>
	<line class="st6" x1="413.6" y1="107.3" x2="413.6" y2="71.3"/>
	<line class="st6" x1="413.6" y1="71.3" x2="406.4" y2="71.3"/>
	<line class="st6" x1="406.4" y1="71.3" x2="370.4" y2="71.3"/>
	<line class="st6" x1="374" y1="85.7" x2="377.6" y2="85.7"/>
	<line class="st6" x1="377.6" y1="92.9" x2="374" y2="85.7"/>
	<line class="st6" x1="399.2" y1="92.9" x2="402.8" y2="85.7"/>
	<line class="st6" x1="402.8" y1="85.7" x2="399.2" y2="85.7"/>
	<line class="st6" x1="374" y1="92.9" x2="377.6" y2="92.9"/>
	<line class="st6" x1="399.2" y1="92.9" x2="402.8" y2="92.9"/>
	<line class="st6" x1="388.4" y1="92.9" x2="388.4" y2="96.5"/>
	<line class="st6" x1="388.4" y1="78.5" x2="377.6" y2="78.5"/>
	<line class="st6" x1="377.6" y1="78.5" x2="377.6" y2="85.7"/>
	<line class="st6" x1="388.4" y1="85.7" x2="388.4" y2="78.5"/>
	<line class="st6" x1="399.2" y1="85.7" x2="399.2" y2="78.5"/>
	<line class="st6" x1="399.2" y1="78.5" x2="388.4" y2="78.5"/>
	<line class="st6" x1="377.6" y1="85.7" x2="381.2" y2="85.7"/>
	<line class="st6" x1="377.6" y1="92.9" x2="381.2" y2="85.7"/>
	<line class="st6" x1="395.6" y1="85.7" x2="399.2" y2="92.9"/>
	<line class="st6" x1="395.6" y1="85.7" x2="399.2" y2="85.7"/>
	<line class="st6" x1="377.6" y1="92.9" x2="377.6" y2="96.5"/>
	<line class="st6" x1="399.2" y1="96.5" x2="388.4" y2="96.5"/>
	<line class="st6" x1="388.4" y1="96.5" x2="377.6" y2="96.5"/>
	<line class="st6" x1="392" y1="111.6" x2="392" y2="114.5"/>
	<line class="st6" x1="381.2" y1="92.9" x2="377.6" y2="92.9"/>
	<line class="st6" x1="384.8" y1="92.9" x2="388.4" y2="92.9"/>
	<line class="st6" x1="388.4" y1="92.9" x2="392" y2="92.9"/>
	<line class="st6" x1="388.4" y1="92.9" x2="384.8" y2="85.7"/>
	<line class="st6" x1="384.8" y1="85.7" x2="392" y2="85.7"/>
	<line class="st6" x1="392" y1="85.7" x2="388.4" y2="92.9"/>
	<line class="st6" x1="399.2" y1="92.9" x2="395.6" y2="92.9"/>
	<line class="st6" x1="399.2" y1="92.9" x2="399.2" y2="96.5"/>
	<line class="st6" x1="406.4" y1="71.3" x2="406.4" y2="78.5"/>
	<line class="st6" x1="399.2" y1="78.5" x2="406.4" y2="78.5"/>
	<text transform="matrix(1 0 0 1 380.4861 76.3655)" class="st8 st1 st9">WS2812B</text>
</g>
<g>
	<line class="st3" x1="464" y1="107.3" x2="478.4" y2="107.3"/>
	<text transform="matrix(1 0 0 1 485.0301 109.4847)" class="st0 st1 st7">DI</text>
	<line class="st3" x1="536" y1="107.3" x2="521.6" y2="107.3"/>
	<text transform="matrix(1 0 0 1 507.8543 109.4847)" class="st0 st1 st7">DO</text>
	<line class="st3" x1="500" y1="128.9" x2="500" y2="114.5"/>
	<text transform="matrix(6.123234e-17 -1 1 6.123234e-17 502.1658 107.9007)" class="st0 st1 st7">GND</text>
	<line class="st3" x1="514.4" y1="56.9" x2="514.4" y2="71.3"/>
	<text transform="matrix(6.123234e-17 -1 1 6.123234e-17 516.5652 87.9827)" class="st0 st1 st7">VDD</text>
	<line class="st6" x1="478.4" y1="71.3" x2="478.4" y2="107.3"/>
	<line class="st6" x1="478.4" y1="107.3" x2="478.4" y2="114.5"/>
	<line class="st6" x1="478.4" y1="114.5" x2="500" y2="114.5"/>
	<line class="st6" x1="500" y1="114.5" x2="521.6" y2="114.5"/>
	<line class="st6" x1="521.6" y1="114.5" x2="521.6" y2="107.3"/>
	<line class="st6" x1="521.6" y1="107.3" x2="521.6" y2="71.3"/>
	<line class="st6" x1="521.6" y1="71.3" x2="514.4" y2="71.3"/>
	<line class="st6" x1="514.4" y1="71.3" x2="478.4" y2="71.3"/>
	<line class="st6" x1="482" y1="85.7" x2="485.6" y2="85.7"/>
	<line class="st6" x1="485.6" y1="92.9" x2="482" y2="85.7"/>
	<line class="st6" x1="507.2" y1="92.9" x2="510.8" y2="85.7"/>
	<line class="st6" x1="510.8" y1="85.7" x2="507.2" y2="85.7"/>
	<line class="st6" x1="482" y1="92.9" x2="485.6" y2="92.9"/>
	<line class="st6" x1="507.2" y1="92.9" x2="510.8" y2="92.9"/>
	<line class="st6" x1="496.4" y1="92.9" x2="496.4" y2="96.5"/>
	<line class="st6" x1="496.4" y1="78.5" x2="485.6" y2="78.5"/>
	<line class="st6" x1="485.6" y1="78.5" x2="485.6" y2="85.7"/>
	<line class="st6" x1="496.4" y1="85.7" x2="496.4" y2="78.5"/>
	<line class="st6" x1="507.2" y1="85.7" x2="507.2" y2="78.5"/>
	<line class="st6" x1="507.2" y1="78.5" x2="496.4" y2="78.5"/>
	<line class="st6" x1="485.6" y1="85.7" x2="489.2" y2="85.7"/>
	<line class="st6" x1="485.6" y1="92.9" x2="489.2" y2="85.7"/>
	<line class="st6" x1="503.6" y1="85.7" x2="507.2" y2="92.9"/>
	<line class="st6" x1="503.6" y1="85.7" x2="507.2" y2="85.7"/>
	<line class="st6" x1="485.6" y1="92.9" x2="485.6" y2="96.5"/>
	<line class="st6" x1="507.2" y1="96.5" x2="496.4" y2="96.5"/>
	<line class="st6" x1="496.4" y1="96.5" x2="485.6" y2="96.5"/>
	<line class="st6" x1="500" y1="111.6" x2="500" y2="114.5"/>
	<line class="st6" x1="489.2" y1="92.9" x2="485.6" y2="92.9"/>
	<line class="st6" x1="492.8" y1="92.9" x2="496.4" y2="92.9"/>
	<line class="st6" x1="496.4" y1="92.9" x2="500" y2="92.9"/>
	<line class="st6" x1="496.4" y1="92.9" x2="492.8" y2="85.7"/>
	<line class="st6" x1="492.8" y1="85.7" x2="500" y2="85.7"/>
	<line class="st6" x1="500" y1="85.7" x2="496.4" y2="92.9"/>
	<line class="st6" x1="507.2" y1="92.9" x2="503.6" y2="92.9"/>
	<line class="st6" x1="507.2" y1="92.9" x2="507.2" y2="96.5"/>
	<line class="st6" x1="514.4" y1="71.3" x2="514.4" y2="78.5"/>
	<line class="st6" x1="507.2" y1="78.5" x2="514.4" y2="78.5"/>
	<text transform="matrix(1 0 0 1 488.4861 76.3655)" class="st8 st1 st9">WS2812B</text>
</g>
<g>
	<line class="st3" x1="334.4" y1="20.9" x2="334.4" y2="13.7"/>
	<line class="st6" x1="338" y1="19.1" x2="334.4" y2="13.7"/>
	<line class="st6" x1="334.4" y1="13.7" x2="330.8" y2="19.1"/>
	<text transform="matrix(1 0 0 1 334.4061 10.1253)" class="st0 st1 st2">5V</text>
</g>
<line class="st3" x1="10.4" y1="114.5" x2="10.4" y2="107.3"/>
<line class="st6" x1="14" y1="112.7" x2="10.4" y2="107.3"/>
<line class="st6" x1="10.4" y1="107.3" x2="6.8" y2="112.7"/>
<text transform="matrix(1 0 0 1 10.4061 103.7249)" class="st0 st1 st2">5V</text>
<line class="st3" x1="46.4" y1="56.9" x2="60.8" y2="56.9"/>
<text transform="matrix(1 0 0 1 67.4305 59.0843)" class="st0 st1 st7">!RST/!JTAG_!RST</text>
<text transform="matrix(1 0 0 1 47.5809 55.9163)" class="st0 st1 st7">RS</text>
<line class="st3" x1="154.4" y1="78.5" x2="140" y2="78.5"/>
<text transform="matrix(1 0 0 1 126.7762 80.6859)" class="st0 st1 st7">I34</text>
<text transform="matrix(1 0 0 1 146.6307 77.5179)" class="st0 st1 st7">34</text>
<line class="st3" x1="154.4" y1="28.1" x2="140" y2="28.1"/>
<text transform="matrix(1 0 0 1 125.7225 30.2855)" class="st0 st1 st7">IO0</text>
<text transform="matrix(1 0 0 1 146.6307 27.1175)" class="st0 st1 st7">0</text>
<line class="st3" x1="154.4" y1="35.3" x2="140" y2="35.3"/>
<text transform="matrix(1 0 0 1 125.7225 37.4847)" class="st0 st1 st7">IO2</text>
<text transform="matrix(1 0 0 1 146.6307 34.3167)" class="st0 st1 st7">2</text>
<line class="st3" x1="154.4" y1="42.5" x2="140" y2="42.5"/>
<text transform="matrix(1 0 0 1 125.7225 44.6859)" class="st0 st1 st7">IO4</text>
<text transform="matrix(1 0 0 1 146.6307 41.5179)" class="st0 st1 st7">4</text>
<line class="st3" x1="46.4" y1="100.1" x2="60.8" y2="100.1"/>
<text transform="matrix(1 0 0 1 67.4305 102.2855)" class="st0 st1 st7">IO5/VSPI_CS/LED</text>
<text transform="matrix(1 0 0 1 51.5389 99.1175)" class="st0 st1 st7">5</text>
<line class="st3" x1="46.4" y1="49.7" x2="60.8" y2="49.7"/>
<text transform="matrix(1 0 0 1 67.4305 51.8851)" class="st0 st1 st7">IO12/JTAG_DI</text>
<text transform="matrix(1 0 0 1 48.8963 48.7171)" class="st0 st1 st7">12</text>
<line class="st3" x1="46.4" y1="35.3" x2="60.8" y2="35.3"/>
<text transform="matrix(1 0 0 1 67.4305 37.4847)" class="st0 st1 st7">IO13/JTAG_CK</text>
<text transform="matrix(1 0 0 1 48.8963 34.3167)" class="st0 st1 st7">13</text>
<line class="st3" x1="46.4" y1="28.1" x2="60.8" y2="28.1"/>
<text transform="matrix(1 0 0 1 67.4305 30.2855)" class="st0 st1 st7">IO14/JTAG_MS</text>
<text transform="matrix(1 0 0 1 48.8963 27.1175)" class="st0 st1 st7">14</text>
<line class="st3" x1="46.4" y1="42.5" x2="60.8" y2="42.5"/>
<text transform="matrix(1 0 0 1 67.4305 44.6859)" class="st0 st1 st7">IO15/JTAG_DO</text>
<text transform="matrix(1 0 0 1 48.8963 41.5179)" class="st0 st1 st7">15</text>
<line class="st3" x1="154.4" y1="49.7" x2="140" y2="49.7"/>
<text transform="matrix(1 0 0 1 123.0799 51.8851)" class="st0 st1 st7">IO16</text>
<text transform="matrix(1 0 0 1 146.6307 48.7171)" class="st0 st1 st7">16</text>
<line class="st3" x1="154.4" y1="56.9" x2="140" y2="56.9"/>
<text transform="matrix(1 0 0 1 123.0799 59.0843)" class="st0 st1 st7">IO17</text>
<text transform="matrix(1 0 0 1 146.6307 55.9163)" class="st0 st1 st7">17</text>
<line class="st3" x1="46.4" y1="92.9" x2="60.8" y2="92.9"/>
<text transform="matrix(1 0 0 1 67.4305 95.0843)" class="st0 st1 st7">IO18/VSPI_CLK</text>
<text transform="matrix(1 0 0 1 48.8963 91.9163)" class="st0 st1 st7">18</text>
<line class="st3" x1="46.4" y1="85.7" x2="60.8" y2="85.7"/>
<text transform="matrix(1 0 0 1 67.4305 87.8851)" class="st0 st1 st7">IO19/VSPI_MISO</text>
<text transform="matrix(1 0 0 1 48.8963 84.7171)" class="st0 st1 st7">19</text>
<line class="st3" x1="46.4" y1="114.5" x2="60.8" y2="114.5"/>
<text transform="matrix(1 0 0 1 67.4305 116.6859)" class="st0 st1 st7">IO21/I2C_SDA</text>
<text transform="matrix(1 0 0 1 48.8963 113.5179)" class="st0 st1 st7">21</text>
<line class="st3" x1="46.4" y1="121.7" x2="60.8" y2="121.7"/>
<text transform="matrix(1 0 0 1 67.4305 123.8851)" class="st0 st1 st7">IO22/I2C_SCL</text>
<text transform="matrix(1 0 0 1 48.8963 120.7171)" class="st0 st1 st7">22</text>
<line class="st3" x1="46.4" y1="78.5" x2="60.8" y2="78.5"/>
<text transform="matrix(1 0 0 1 67.4305 80.6859)" class="st0 st1 st7">IO23/VSPI_MOSI</text>
<text transform="matrix(1 0 0 1 48.8963 77.5179)" class="st0 st1 st7">23</text>
<line class="st3" x1="154.4" y1="64.1" x2="140" y2="64.1"/>
<text transform="matrix(1 0 0 1 123.0799 66.2855)" class="st0 st1 st7">IO32</text>
<text transform="matrix(1 0 0 1 146.6307 63.1175)" class="st0 st1 st7">32</text>
<line class="st3" x1="154.4" y1="71.3" x2="140" y2="71.3"/>
<text transform="matrix(1 0 0 1 123.0799 73.4847)" class="st0 st1 st7">IO33</text>
<text transform="matrix(1 0 0 1 146.6307 70.3167)" class="st0 st1 st7">33</text>
<line class="st3" x1="154.4" y1="143.3" x2="140" y2="143.3"/>
<text transform="matrix(1 0 0 1 109.699 145.4847)" class="st0 st1 st7">RTS2/IO27</text>
<text transform="matrix(1 0 0 1 146.6307 142.3167)" class="st0 st1 st7">27</text>
<line class="st3" x1="154.4" y1="107.3" x2="140" y2="107.3"/>
<text transform="matrix(1 0 0 1 115.158 109.4847)" class="st0 st1 st7">RX0/IO3</text>
<text transform="matrix(1 0 0 1 146.6307 106.3167)" class="st0 st1 st7">RX</text>
<line class="st3" x1="154.4" y1="128.9" x2="140" y2="128.9"/>
<text transform="matrix(1 0 0 1 112.5154 131.0843)" class="st0 st1 st7">RX2/IO25</text>
<text transform="matrix(1 0 0 1 146.6307 127.9163)" class="st0 st1 st7">25</text>
<line class="st3" x1="154.4" y1="114.5" x2="140" y2="114.5"/>
<text transform="matrix(1 0 0 1 115.6873 116.6859)" class="st0 st1 st7">TX0/IO1</text>
<text transform="matrix(1 0 0 1 146.6307 113.5179)" class="st0 st1 st7">TX</text>
<line class="st3" x1="154.4" y1="136.1" x2="140" y2="136.1"/>
<text transform="matrix(1 0 0 1 113.0447 138.2855)" class="st0 st1 st7">TX2/IO26</text>
<text transform="matrix(1 0 0 1 146.6307 135.1175)" class="st0 st1 st7">26</text>
<line class="st3" x1="154.4" y1="92.9" x2="140" y2="92.9"/>
<text transform="matrix(1 0 0 1 118.8543 95.0843)" class="st0 st1 st7">VN/I39</text>
<text transform="matrix(1 0 0 1 146.6307 91.9163)" class="st0 st1 st7">VN</text>
<line class="st3" x1="154.4" y1="85.7" x2="140" y2="85.7"/>
<text transform="matrix(1 0 0 1 119.117 87.8851)" class="st0 st1 st7">VP/I36</text>
<text transform="matrix(1 0 0 1 146.6307 84.7171)" class="st0 st1 st7">VP</text>
<line class="st6" x1="82.4" y1="150.5" x2="140" y2="150.5"/>
<line class="st6" x1="140" y1="150.5" x2="140" y2="20.9"/>
<line class="st6" x1="140" y1="20.9" x2="60.8" y2="20.9"/>
<line class="st6" x1="60.8" y1="20.9" x2="60.8" y2="128.9"/>
<line class="st6" x1="60.8" y1="128.9" x2="60.8" y2="150.5"/>
<line class="st6" x1="82.4" y1="128.9" x2="60.8" y2="128.9"/>
<line class="st6" x1="82.4" y1="150.5" x2="60.8" y2="150.5"/>
<line class="st6" x1="82.4" y1="128.9" x2="82.4" y2="150.5"/>
<line class="st10" x1="78.1" y1="136.1" x2="81.7" y2="136.1"/>
<line class="st10" x1="78.1" y1="143.3" x2="81.7" y2="143.3"/>
<line class="st10" x1="78.1" y1="139.7" x2="81.7" y2="139.7"/>
<line class="st10" x1="78.1" y1="132.5" x2="81.7" y2="132.5"/>
<line class="st10" x1="78.1" y1="146.9" x2="81.7" y2="146.9"/>
<text transform="matrix(6.123234e-17 -1 1 6.123234e-17 73.0447 146.9241)" class="st8 st1 st2">USB</text>
<text transform="matrix(1 0 0 1 60.8065 164.9251)" class="st11"><tspan x="0" y="0" class="st0 st1 st9">I2C pins don&apos;t have pull-up resistors </tspan><tspan x="0" y="4.8" class="st0 st1 st9">USB Serial uses IO3 for RX0, and IO1 for TX0 </tspan><tspan x="0" y="9.5" class="st0 st1 st9">Read the BAT voltage from IO35 and double it</tspan></text>
<text transform="matrix(1 0 0 1 60.8065 17.3245)" class="st0 st1 st2">PCB1</text>
<text transform="matrix(1 0 0 1 60.8065 157.7249)" class="st0 st1 st2">LOLIN-D32</text>
<g>
	<line class="st3" x1="262.4" y1="107.3" x2="255.2" y2="107.3"/>
	<line class="st3" x1="233.6" y1="107.3" x2="240.8" y2="107.3"/>
	<line class="st6" x1="255.2" y1="109.8" x2="240.8" y2="109.8"/>
	<line class="st6" x1="240.8" y1="104.8" x2="255.2" y2="104.8"/>
	<line class="st6" x1="240.8" y1="109.8" x2="240.8" y2="104.8"/>
	<line class="st6" x1="255.2" y1="109.8" x2="255.2" y2="104.8"/>
	<text transform="matrix(1 0 0 1 251.7195 103.0765)" class="st0 st1 st2">R3</text>
	<text transform="matrix(1 0 0 1 245.8582 116.6859)" class="st0 st1 st2">470&amp;</text>
</g>
<g>
	<line class="st3" x1="168.8" y1="28.1" x2="176" y2="28.1"/>
	<text transform="matrix(1 0 0 1 172.3553 27.1175)" class="st0 st1 st7">1</text>
	<line class="st3" x1="168.8" y1="35.3" x2="176" y2="35.3"/>
	<text transform="matrix(1 0 0 1 172.3553 34.3167)" class="st0 st1 st7">2</text>
	<line class="st3" x1="204.8" y1="35.3" x2="197.6" y2="35.3"/>
	<text transform="matrix(1 0 0 1 198.6141 34.3167)" class="st0 st1 st7">3</text>
	<line class="st3" x1="204.8" y1="28.1" x2="197.6" y2="28.1"/>
	<text transform="matrix(1 0 0 1 198.6141 27.1175)" class="st0 st1 st7">4</text>
	<line class="st6" x1="176" y1="28.1" x2="176" y2="35.3"/>
	<line class="st6" x1="197.6" y1="28.1" x2="197.6" y2="35.3"/>
	<line class="st6" x1="176" y1="28.1" x2="179.6" y2="28.1"/>
	<line class="st6" x1="194" y1="28.1" x2="197.6" y2="28.1"/>
	<line class="st6" x1="179.6" y1="28.1" x2="194" y2="24.5"/>
	<text transform="matrix(1 0 0 1 176.0008 42.514)" class="st0 st1 st12">SW1</text>
	<text transform="matrix(1 0 0 1 176.0008 20.9359)" class="st0 st1 st13">Factory (5 sec)</text>
</g>
</svg>
